<svg xmlns="http://www.w3.org/2000/svg" width="1280" height="720" viewBox="0 0 1280 720">
  <rect width="1280" height="720" fill="#f0fdf4"/>
  <rect x="0" y="0" width="1280" height="84" fill="#166534"/>
  <text x="40" y="53" font-family="Arial, sans-serif" font-size="30" fill="#ffffff">Reservas y Horarios</text>
  <rect x="40" y="120" width="390" height="560" rx="12" fill="#ffffff" stroke="#bbf7d0"/>
  <rect x="460" y="120" width="780" height="560" rx="12" fill="#ffffff" stroke="#bbf7d0"/>
  <text x="70" y="160" font-family="Arial, sans-serif" font-size="22" fill="#14532d">Filtros</text>
  <rect x="70" y="190" width="330" height="42" rx="8" fill="#f0fdf4"/>
  <rect x="70" y="244" width="330" height="42" rx="8" fill="#f0fdf4"/>
  <rect x="70" y="298" width="330" height="42" rx="8" fill="#f0fdf4"/>
  <text x="500" y="160" font-family="Arial, sans-serif" font-size="22" fill="#14532d">Calendario</text>
  <rect x="500" y="190" width="700" height="460" rx="8" fill="#f7fee7"/>
  <rect x="530" y="230" width="220" height="42" rx="6" fill="#86efac"/>
  <rect x="780" y="300" width="220" height="42" rx="6" fill="#bbf7d0"/>
  <rect x="1030" y="370" width="140" height="42" rx="6" fill="#4ade80"/>
  <text x="30" y="700" font-family="Arial, sans-serif" font-size="20" fill="#166534">Mockup visual. Reemplazar por captura real en docs/screenshots/bookings.svg o bookings.png</text>
</svg>
